<svg width="560" height="270" viewBox="0 0 560 270" fill="none" xmlns="http://www.w3.org/2000/svg">
<path d="M224.505 210.96L67.2207 24.1786C56.7052 11.6911 35.587 8.84255 22.8469 18.8356C10.1068 28.8286 10.5691 47.8791 21.0846 60.3667L178.369 247.148C188.885 259.636 207.5 260.5 222.713 249.944C235.453 239.951 235.021 223.448 224.505 210.96Z" stroke="white" stroke-width="16"/>
<path fill-rule="evenodd" clip-rule="evenodd" d="M168.516 94.1747L183.5 112.032V108.365C183.5 92.2 188.753 72.2973 198.116 55.4949C205.291 42.619 214.377 32.4233 224.5 26.7463V231H240.5V15.0002V4.7959L230.591 7.2314C210.347 12.2068 194.609 28.92 184.14 47.7063C176.102 62.1301 170.656 78.6539 168.516 94.1747Z" fill="white"/>
<path fill-rule="evenodd" clip-rule="evenodd" d="M62 153.871L77.4203 172.248C75.6697 188.781 70.0193 206.756 61.3602 222.294C50.8911 241.08 35.1531 257.793 14.9094 262.769L5 265.204V255V39H21V243.254C31.123 237.577 40.2085 227.381 47.3839 214.505C56.7475 197.703 62 177.8 62 161.636V153.871Z" fill="white"/>
<path d="M410.5 257H549.5C541.064 222.674 491.457 200 456.136 200H410.993" stroke="white" stroke-width="16"/>
<path d="M411 265C382.906 265 355.569 255.899 333.081 239.06C310.593 222.222 294.165 198.551 286.257 171.593C278.349 144.636 279.386 115.842 289.214 89.5229C299.042 63.2044 317.131 40.7776 340.773 25.6011C364.414 10.4246 392.336 3.31509 420.357 5.33718C448.378 7.35927 474.99 18.4042 496.207 36.8179C517.425 55.2316 532.107 80.0232 538.054 107.48C544.001 134.937 540.894 163.582 529.197 189.125L514.623 182.451C524.878 160.058 527.602 134.945 522.388 110.873C517.174 86.8018 504.303 65.067 485.701 48.9237C467.1 32.7804 443.769 23.0974 419.203 21.3246C394.637 19.5518 370.158 25.7848 349.432 39.09C328.705 52.3952 312.846 72.0568 304.23 95.1303C295.614 118.204 294.704 143.448 301.637 167.081C308.57 190.715 322.973 211.467 342.688 226.23C362.403 240.992 386.37 248.971 411 248.971L411 265Z" fill="white"/>
<path fill-rule="evenodd" clip-rule="evenodd" d="M475.054 170.016C481.275 158.635 484.383 145.743 483.962 132.657C483.433 116.161 477.329 100.332 466.647 87.7511C455.964 75.1703 441.334 66.5805 425.142 63.3831C408.951 60.1857 392.154 62.5694 377.491 70.1453C362.828 77.7212 351.166 90.0422 344.405 105.098C337.645 120.154 336.186 137.057 340.266 153.049C344.347 169.041 353.726 183.178 366.874 193.154C380.022 203.13 396.162 208.357 412.662 207.981L412.299 192.034C399.404 192.328 386.791 188.243 376.516 180.447C366.241 172.65 358.911 161.602 355.723 149.105C352.534 136.608 353.674 123.398 358.957 111.632C364.24 99.866 373.354 90.2373 384.813 84.3168C396.272 78.3963 409.399 76.5335 422.052 79.0322C434.706 81.531 446.139 88.2438 454.487 98.0756C462.835 107.907 467.605 120.278 468.019 133.169C468.421 145.691 464.691 157.985 457.42 168.162L475.054 170.016Z" fill="white"/>
</svg>
